<?xml version="1.0" encoding="UTF-8"?>
<svg id="Layer_1" data-name="Layer 1" xmlns="http://www.w3.org/2000/svg" viewBox="0 0 985.34 976.07">
  <defs>
    <style>
      .cls-1 {
        fill: #9de501;
      }

      .cls-2 {
        fill: #04bde6;
      }
    </style>
  </defs>
  <path class="cls-2" d="m23.71,260.58c67.98-51.47,68.94-41.36,170.04-90.38S458.78,56.83,530.78,29.26s171.57-74.3,249.7,75.06c78.13,149.36,153.19,318.64,101.11,386.04-56.9,73.63-400.38,223.05-381.45,119.49,27.57-150.81,52.09-212.94,78.13-318.64,27.43-111.33-3.06-130.21-68.94-99.57-53.9,25.07-407.36,270.8-481.02,214.47-26.04-19.91-45.81-114.33-4.6-145.53Z"/>
  <path class="cls-1" d="m961.62,715.49c-67.98,51.47-68.94,41.36-170.04,90.38-101.11,49.02-265.02,113.36-337.02,140.94s-171.57,74.3-249.7-75.06c-78.13-149.36-153.19-318.64-101.11-386.04,56.9-73.63,400.38-223.05,381.45-119.49-27.57,150.81-52.09,212.94-78.13,318.64-27.43,111.33,3.06,130.21,68.94,99.57,53.9-25.07,407.36-270.8,481.02-214.47,26.04,19.91,45.81,114.33,4.6,145.53Z"/>
</svg>